<svg xmlns="http://www.w3.org/2000/svg" width="49.056" height="40.05" viewBox="0 0 49.056 40.05">
  <g id="_002-credit-card" data-name="002-credit-card" transform="translate(1)">
    <g id="Grupo_76" data-name="Grupo 76" transform="translate(-1 0)">
      <g id="Grupo_75" data-name="Grupo 75" transform="translate(0)">
        <path id="Caminho_35" data-name="Caminho 35" d="M264.351,251.272h13.077a.772.772,0,0,0,.817-.817V243.1a.772.772,0,0,0-.817-.817H264.351a.772.772,0,0,0-.817.817v7.356A.772.772,0,0,0,264.351,251.272Zm.817-7.356h11.443v5.721H265.169Z" transform="translate(-238.196 -223.482)" fill="#cfa22b"/>
        <path id="Caminho_36" data-name="Caminho 36" d="M33.951,209.782H40.49a.817.817,0,1,0,0-1.635H33.951a.817.817,0,1,0,0,1.635Z" transform="translate(-29.865 -192.618)" fill="#cfa22b"/>
        <path id="Caminho_37" data-name="Caminho 37" d="M136.351,209.782h6.539a.817.817,0,1,0,0-1.635h-6.539a.817.817,0,1,0,0,1.635Z" transform="translate(-122.457 -192.618)" fill="#cfa22b"/>
        <path id="Caminho_38" data-name="Caminho 38" d="M33.951,243.916H44.577a.817.817,0,0,0,0-1.635H33.951a.817.817,0,0,0,0,1.635Z" transform="translate(-29.865 -223.482)" fill="#cfa22b"/>
        <path id="Caminho_39" data-name="Caminho 39" d="M181.469,242.28h-2.452a.817.817,0,1,0,0,1.635h2.452a.817.817,0,0,0,0-1.635Z" transform="translate(-161.036 -223.481)" fill="#cfa22b"/>
        <path id="Caminho_40" data-name="Caminho 40" d="M47.3,54.678A3.045,3.045,0,0,0,45.1,53.452l-1.962-.238V49.283a3.279,3.279,0,0,0-3.269-3.269H2.269A3.279,3.279,0,0,0-1,49.283V75.438a3.282,3.282,0,0,0,2.342,3.134,3.181,3.181,0,0,0,2.889,3.241l37.761,4.25h.327a3.273,3.273,0,0,0,3.269-2.779L48.04,57.048A3.177,3.177,0,0,0,47.3,54.678ZM.635,51.735H41.5v4.9H.635Zm1.635-4.087h37.6A1.64,1.64,0,0,1,41.5,49.283V50.1H.635v-.817A1.639,1.639,0,0,1,2.269,47.649ZM.635,75.438V58.274H41.5V75.438a1.639,1.639,0,0,1-1.635,1.635H2.269A1.639,1.639,0,0,1,.635,75.438ZM46.406,56.721,43.954,82.958a1.649,1.649,0,0,1-1.8,1.471L4.476,80.179A1.652,1.652,0,0,1,3,78.708H39.867a3.279,3.279,0,0,0,3.269-3.269V54.759l1.88.164a1.4,1.4,0,0,1,1.063.572A1.655,1.655,0,0,1,46.406,56.721Z" transform="translate(1 -46.014)" fill="#cfa22b"/>
      </g>
    </g>
  </g>
</svg>
