<svg id="Grupo_713" data-name="Grupo 713" xmlns="http://www.w3.org/2000/svg" xmlns:xlink="http://www.w3.org/1999/xlink" width="48.194" height="44.217" viewBox="0 0 48.194 44.217">
  <defs>
    <clipPath id="clip-path">
      <rect id="Retângulo_140" data-name="Retângulo 140" width="48.194" height="44.217" fill="#cfa22b"/>
    </clipPath>
  </defs>
  <g id="Grupo_202" data-name="Grupo 202" clip-path="url(#clip-path)">
    <path id="Caminho_179" data-name="Caminho 179" d="M48.193,22.108a22.109,22.109,0,1,1-44.217,0,1.241,1.241,0,0,1,.132-.528L1.93,23.758a1.218,1.218,0,0,1-.792.33,1.218,1.218,0,0,1-.792-.33,1.078,1.078,0,0,1,0-1.584l4.026-4.026a.911.911,0,0,1,.264-.2,1.115,1.115,0,0,1,.924-.066,1.659,1.659,0,0,1,.462.264l4.026,4.026a1.078,1.078,0,0,1,0,1.584,1.115,1.115,0,0,1-1.584,0L6.287,21.58a1.246,1.246,0,0,1,.132.528A19.865,19.865,0,1,0,26.284,2.244,19.505,19.505,0,0,0,12.095,8.249,1.12,1.12,0,1,1,10.51,6.665,21.936,21.936,0,0,1,48.194,22.109ZM32.486,14.057,17.769,28.774a1.077,1.077,0,0,0,0,1.584,1.115,1.115,0,0,0,1.584,0L34.07,15.641a1.12,1.12,0,1,0-1.584-1.584Zm-8.91.2a4.262,4.262,0,0,1,0,6.006,4.151,4.151,0,0,1-2.97,1.254,4.043,4.043,0,0,1-2.97-1.254,4.262,4.262,0,0,1,0-6.006A4.182,4.182,0,0,1,23.577,14.255Zm-1.65,1.584a1.96,1.96,0,1,0,0,2.772A1.9,1.9,0,0,0,21.927,15.839Zm9.7,6.93a4.2,4.2,0,0,1,2.97,1.254,4.262,4.262,0,0,1,0,6.006,4.143,4.143,0,0,1-5.939,0,4.262,4.262,0,0,1,0-6.006,3.942,3.942,0,0,1,2.97-1.254m1.386,2.838a1.98,1.98,0,1,0,0,2.772,1.9,1.9,0,0,0,0-2.772" transform="translate(0 0)" fill="#cfa22b"/>
  </g>
</svg>
