<svg id="_003-shipped" data-name="003-shipped" xmlns="http://www.w3.org/2000/svg" width="58.184" height="36.805" viewBox="0 0 58.184 36.805">
  <g id="Grupo_32" data-name="Grupo 32" transform="translate(0 0)">
    <g id="Grupo_31" data-name="Grupo 31">
      <path id="Caminho_13" data-name="Caminho 13" d="M54.111,109.665,52.6,103.638a.911.911,0,0,0,.721-.891v-.972A3.831,3.831,0,0,0,49.5,97.949H42.636v-2a1.885,1.885,0,0,0-1.883-1.883H5.77a1.885,1.885,0,0,0-1.883,1.883v16.52a.911.911,0,0,0,1.822,0V95.945a.061.061,0,0,1,.061-.061H40.753a.061.061,0,0,1,.061.061v16.52a.911.911,0,0,0,1.822,0v-1.033H53.388a2.981,2.981,0,0,1,2.831,2.065H53.386a.911.911,0,0,0-.911.911v1.943a2.858,2.858,0,0,0,2.855,2.855h1.033v4.008H53.98a5.768,5.768,0,0,0-10.905,0h-.439v-6.863a.911.911,0,0,0-1.822,0v6.863h-18.9a5.768,5.768,0,0,0-10.905,0H5.77a.061.061,0,0,1-.061-.061v-2H9.657a.911.911,0,1,0,0-1.822H.911a.911.911,0,1,0,0,1.822H3.887v2a1.885,1.885,0,0,0,1.883,1.883h4.921c0,.02,0,.04,0,.061a5.77,5.77,0,0,0,11.54,0c0-.02,0-.04,0-.061H42.759c0,.02,0,.04,0,.061a5.77,5.77,0,0,0,11.54,0c0-.02,0-.04,0-.061h2.978a.911.911,0,0,0,.911-.911v-9.718A4.805,4.805,0,0,0,54.111,109.665ZM42.636,99.771H49.5a2.007,2.007,0,0,1,2,2v.061H42.636Zm0,9.839v-5.952h8.1l1.488,5.952ZM16.459,129.045a3.948,3.948,0,1,1,3.948-3.948A3.952,3.952,0,0,1,16.459,129.045Zm32.068,0a3.948,3.948,0,1,1,3.948-3.948A3.952,3.952,0,0,1,48.527,129.045Zm7.835-11.661H55.33a1.034,1.034,0,0,1-1.033-1.033v-1.033h2.065v2.065Z" transform="translate(0 -94.062)" fill="#cfa22b"/>
    </g>
  </g>
  <g id="Grupo_34" data-name="Grupo 34" transform="translate(14.572 29.119)">
    <g id="Grupo_33" data-name="Grupo 33" transform="translate(0 0)">
      <path id="Caminho_14" data-name="Caminho 14" d="M130.158,350.6a1.891,1.891,0,1,0,1.891,1.891A1.893,1.893,0,0,0,130.158,350.6Z" transform="translate(-128.267 -350.597)" fill="#cfa22b"/>
    </g>
  </g>
  <g id="Grupo_36" data-name="Grupo 36" transform="translate(46.594 29.119)">
    <g id="Grupo_35" data-name="Grupo 35" transform="translate(0 0)">
      <path id="Caminho_15" data-name="Caminho 15" d="M412.346,350.6a1.891,1.891,0,1,0,1.891,1.891A1.893,1.893,0,0,0,412.346,350.6Z" transform="translate(-410.455 -350.597)" fill="#cfa22b"/>
    </g>
  </g>
  <g id="Grupo_38" data-name="Grupo 38" transform="translate(23.285 25.26)">
    <g id="Grupo_37" data-name="Grupo 37" transform="translate(0 0)">
      <path id="Caminho_16" data-name="Caminho 16" d="M219.806,316.393H206.142a.915.915,0,1,0,0,1.83h13.664a.915.915,0,0,0,0-1.83Z" transform="translate(-205.227 -316.393)" fill="#cfa22b"/>
    </g>
  </g>
  <g id="Grupo_40" data-name="Grupo 40" transform="translate(1.952 21.374)">
    <g id="Grupo_39" data-name="Grupo 39" transform="translate(0 0)">
      <path id="Caminho_17" data-name="Caminho 17" d="M29.729,282.188H18.017a.915.915,0,0,0,0,1.83H29.729a.915.915,0,0,0,0-1.83Z" transform="translate(-17.102 -282.188)" fill="#cfa22b"/>
    </g>
  </g>
  <g id="Grupo_42" data-name="Grupo 42" transform="translate(16.494 8.73)">
    <g id="Grupo_41" data-name="Grupo 41" transform="translate(0 0)">
      <path id="Caminho_18" data-name="Caminho 18" d="M160.6,171.291a.915.915,0,0,0-1.294,0l-8.137,8.137-4.233-4.233a.915.915,0,0,0-1.294,1.294l4.88,4.88a.915.915,0,0,0,1.294,0l8.784-8.784A.915.915,0,0,0,160.6,171.291Z" transform="translate(-145.37 -171.023)" fill="#cfa22b"/>
    </g>
  </g>
</svg>
