<svg xmlns="http://www.w3.org/2000/svg" xmlns:xlink="http://www.w3.org/1999/xlink" width="1523.382" height="141.093" viewBox="0 0 1523.382 141.093">
  <defs>
    <linearGradient id="linear-gradient" x1="0.5" x2="0.5" y2="1" gradientUnits="objectBoundingBox">
      <stop offset="0" stop-color="#00AAA6"/>
      <stop offset="1" stop-color="#1e7e8e"/>
    </linearGradient>
  </defs>
  <g id="Grupo_458" data-name="Grupo 458" transform="translate(0)">
    <rect id="Retângulo_299" data-name="Retângulo 299" width="1523.382" height="141.093" rx="20" transform="translate(0 0)" fill="url(#linear-gradient)"/>
    <text id="Conheça_o_nosso_BLOG" data-name="Conheça o
nosso BLOG" transform="translate(833.748 63.13)" fill="#fff" font-size="27" font-family="Gotham-Regular, Gotham"><tspan x="-143" y="0">Conheça o</tspan><tspan x="-166" y="34">nosso</tspan><tspan y="34" xml:space="preserve" font-family="Gotham-Bold, Gotham" font-weight="700"> BLOG</tspan></text>
    <line id="Linha_32" data-name="Linha 32" y2="68.955" transform="translate(929.283 36.599)" fill="none" stroke="#fff" stroke-linecap="round" stroke-width="1"/>
    <g id="Grupo_437" data-name="Grupo 437" transform="translate(316.853 23.339)">
      <g id="Grupo_434" data-name="Grupo 434" transform="translate(0 0)">
        <path id="Caminho_161" data-name="Caminho 161" d="M49.894,18.994c-2.969-.376-6.325-.989-7.213-2.834C39.015,7.376,29.185,7.4,29.185,7.4S27.694.823,25.815.058c-2.021-.709-7.26,5.249-9.132,7.552C9,16.754,6.62,31.7,18.085,39.963c3.251,2.307,5.147,3.043,9.011,4.973.29.147.6.32.919.5C17.594,41.319,4.834,40.259,4.751,21.2c-7.3,9.933-6.668,22.93,5.277,29.188C17.178,54.344,26.72,55.4,33.4,57.842c-9.73-3.016-20.759-.936-29.823-7.928C7.612,61.337,18.745,63.284,26.33,63.425c6.879.094,12.958-.847,15.266,4.332a10.374,10.374,0,0,0-.294-3.031c-.11-6.762-1.984-11.081-4.834-14.062a19.975,19.975,0,0,0-3.022-3.244c-8.2-7.344-1.913-14.206,6.5-14.206S50.741,30.1,52.154,21.865a2.345,2.345,0,0,0-2.26-2.872m-14.425.755a1.7,1.7,0,0,1-1.719-1.717,1.771,1.771,0,0,1,1.719-1.716,1.717,1.717,0,1,1,0,3.434" transform="translate(0 0)" fill="#AB3E00"/>
        <path id="Caminho_162" data-name="Caminho 162" d="M155.273,62.807a.528.528,0,0,0,.427-.611l-.134-.762a10.783,10.783,0,1,0-7.306,12.136,11.04,11.04,0,0,0,5.643-4.254l.3-.428a.566.566,0,0,0-.139-.786l-1.338-.935a.4.4,0,0,0-.561.1l-.515.735a8.177,8.177,0,0,1-14.428-2.011l16.01-2.824Zm-18.494.621a8.183,8.183,0,0,1,7.258-8.252,8.281,8.281,0,0,1,8.6,5.455Z" transform="translate(-45.59 -17.848)" fill="#fff"/>
        <path id="Caminho_163" data-name="Caminho 163" d="M126.252,41.311h-1.793a.4.4,0,0,0-.4.4V69.583a.4.4,0,0,0,.4.4h1.793a.4.4,0,0,0,.4-.4V41.714a.4.4,0,0,0-.4-.4" transform="translate(-42.155 -14.038)" fill="#fff"/>
        <path id="Caminho_164" data-name="Caminho 164" d="M222.116,52.526h-1.793a.4.4,0,0,0-.4.4v3.377a10.782,10.782,0,1,0,0,14v3.377a.4.4,0,0,0,.4.4h1.793a.4.4,0,0,0,.4-.4V52.929a.4.4,0,0,0-.4-.4M211.738,71.491a8.182,8.182,0,1,1,8.182-8.183,8.193,8.193,0,0,1-8.182,8.183" transform="translate(-68.287 -17.849)" fill="#fff"/>
        <path id="Caminho_165" data-name="Caminho 165" d="M296.541,67.167a.4.4,0,0,0-.561.1l-.515.735a8.177,8.177,0,0,1-14.428-2.011l16.01-2.823,2.041-.36a.528.528,0,0,0,.427-.611l-.134-.762a10.783,10.783,0,1,0-7.306,12.136,11.043,11.043,0,0,0,5.642-4.254l.3-.428a.564.564,0,0,0-.138-.786Zm-8.689-11.991a8.281,8.281,0,0,1,8.6,5.455l-15.862,2.8a8.184,8.184,0,0,1,7.259-8.252" transform="translate(-94.459 -17.848)" fill="#fff"/>
        <path id="Caminho_166" data-name="Caminho 166" d="M260.543,52.526H258.75a.4.4,0,0,0-.4.4v3.377a10.782,10.782,0,1,0,0,14V72.5a8.191,8.191,0,0,1-8.933,8.149,8.544,8.544,0,0,1-5.223-2.55l-.333-.333a.565.565,0,0,0-.8,0l-.926.926a.726.726,0,0,0,0,1.027l.181.18a11.2,11.2,0,0,0,7.762,3.383A10.794,10.794,0,0,0,260.946,72.5V52.929a.4.4,0,0,0-.4-.4M250.164,71.491a8.182,8.182,0,1,1,8.182-8.183,8.192,8.192,0,0,1-8.182,8.183" transform="translate(-81.344 -17.849)" fill="#fff"/>
        <path id="Caminho_167" data-name="Caminho 167" d="M188.551,52.5H186.62a.569.569,0,0,0-.534.374l-6.649,18.3H178.4l-6.649-18.3a.569.569,0,0,0-.534-.374h-2a.227.227,0,0,0-.214.3l7.22,20.286a1.028,1.028,0,0,0,.968.682h3.455a1.017,1.017,0,0,0,.96-.677l7.2-20.23a.273.273,0,0,0-.257-.364" transform="translate(-57.425 -17.841)" fill="#fff"/>
        <path id="Caminho_168" data-name="Caminho 168" d="M106.33,62.807a.527.527,0,0,0,.427-.611l-.134-.762a10.783,10.783,0,1,0-7.306,12.136,11.041,11.041,0,0,0,5.642-4.254l.3-.428a.566.566,0,0,0-.139-.786l-1.338-.935a.4.4,0,0,0-.561.1l-.515.735A8.177,8.177,0,0,1,88.28,65.99l16.01-2.824Zm-18.494.621a8.183,8.183,0,0,1,7.258-8.252,8.281,8.281,0,0,1,8.6,5.455Z" transform="translate(-28.959 -17.848)" fill="#fff"/>
        <rect id="Retângulo_131" data-name="Retângulo 131" width="205.063" height="67.757" transform="translate(0 0)" fill="none"/>
      </g>
      <text id="BLOG" transform="translate(143.534 88.077)" fill="#fff" font-size="18" font-family="Gotham-Medium, Gotham" font-weight="500" letter-spacing="0.1em"><tspan x="0" y="0">BLOG</tspan></text>
      <line id="Linha_33" data-name="Linha 33" x2="134.728" transform="translate(0.531 82.216)" fill="none" stroke="#fff" stroke-linecap="round" stroke-width="1"/>
    </g>
    <g id="Grupo_436" data-name="Grupo 436" transform="translate(1023.38 26.521)">
      <text id="Fique_por_dentro_do_nosso_conteúdo" data-name="Fique por dentro
do nosso conteúdo" transform="translate(0.683 17)" fill="#fff" font-size="18" font-family="Gotham-Regular, Gotham"><tspan x="0" y="0">Fique por dentro</tspan><tspan x="0" y="20">do nosso conteúdo</tspan></text>
      <g id="Grupo_435" data-name="Grupo 435" transform="translate(0 50.39)">
        <rect id="Retângulo_301" data-name="Retângulo 301" width="137.911" height="41.373" rx="13" fill="#AB3E00"/>
        <text id="Conferir" transform="translate(67.129 24.609)" fill="#fff" font-size="14" font-family="Gotham-Bold, Gotham" font-weight="700"><tspan x="-29" y="0">Conferir</tspan></text>
      </g>
    </g>
  </g>
</svg>
