<svg xmlns="http://www.w3.org/2000/svg" width="23.528" height="23.528" viewBox="0 0 23.528 23.528">
  <path id="Icon_awesome-facebook-square" data-name="Icon awesome-facebook-square" d="M21.007,2.25H2.521A2.521,2.521,0,0,0,0,4.771V23.257a2.521,2.521,0,0,0,2.521,2.521H9.729v-8H6.42V14.014H9.729v-2.87c0-3.264,1.943-5.067,4.919-5.067a20.044,20.044,0,0,1,2.916.254v3.2H15.922A1.883,1.883,0,0,0,13.8,11.569v2.445h3.612l-.578,3.765H13.8v8h7.208a2.521,2.521,0,0,0,2.521-2.521V4.771A2.521,2.521,0,0,0,21.007,2.25Z" transform="translate(0 -2.25)" fill="#805916"/>
</svg>
