<svg xmlns="http://www.w3.org/2000/svg" width="23.534" height="23.528" viewBox="0 0 23.534 23.528">
  <path id="Icon_awesome-instagram" data-name="Icon awesome-instagram" d="M11.764,7.97A6.032,6.032,0,1,0,17.8,14,6.023,6.023,0,0,0,11.764,7.97Zm0,9.954A3.922,3.922,0,1,1,15.686,14a3.929,3.929,0,0,1-3.922,3.922Zm7.686-10.2a1.407,1.407,0,1,1-1.407-1.407A1.4,1.4,0,0,1,19.45,7.723Zm4,1.428a6.963,6.963,0,0,0-1.9-4.93,7.009,7.009,0,0,0-4.93-1.9c-1.943-.11-7.765-.11-9.707,0a7,7,0,0,0-4.93,1.9,6.986,6.986,0,0,0-1.9,4.93c-.11,1.943-.11,7.765,0,9.707a6.963,6.963,0,0,0,1.9,4.93,7.018,7.018,0,0,0,4.93,1.9c1.943.11,7.765.11,9.707,0a6.963,6.963,0,0,0,4.93-1.9,7.009,7.009,0,0,0,1.9-4.93c.11-1.943.11-7.76,0-9.7Zm-2.51,11.786A3.971,3.971,0,0,1,18.7,23.174c-1.549.614-5.224.473-6.935.473s-5.392.137-6.935-.473a3.971,3.971,0,0,1-2.237-2.237C1.978,19.389,2.12,15.713,2.12,14s-.137-5.392.473-6.935A3.971,3.971,0,0,1,4.829,4.83c1.549-.614,5.224-.473,6.935-.473s5.392-.137,6.935.473a3.971,3.971,0,0,1,2.237,2.237c.614,1.549.473,5.224.473,6.935S21.55,19.394,20.936,20.937Z" transform="translate(0.005 -2.238)" fill="#805916"/>
</svg>
