<svg xmlns="http://www.w3.org/2000/svg" width="23.528" height="23.528" viewBox="0 0 23.528 23.528">
  <path id="Icon_awesome-pinterest" data-name="Icon awesome-pinterest" d="M23.528,12.327A11.766,11.766,0,0,1,8.282,23.564a13.224,13.224,0,0,0,1.461-3.083c.142-.55.731-2.8.731-2.8a3.151,3.151,0,0,0,2.694,1.352c3.548,0,6.105-3.264,6.105-7.319,0-3.885-3.173-6.793-7.253-6.793-5.076,0-7.775,3.406-7.775,7.12,0,1.727.92,3.876,2.386,4.559.223.1.342.057.394-.157.038-.161.237-.963.327-1.333a.352.352,0,0,0-.081-.337A4.633,4.633,0,0,1,6.4,12.089a5.091,5.091,0,0,1,5.313-5.1,4.645,4.645,0,0,1,4.914,4.786c0,3.183-1.608,5.389-3.7,5.389a1.706,1.706,0,0,1-1.741-2.125,23.639,23.639,0,0,0,.972-3.918,1.477,1.477,0,0,0-1.489-1.656c-1.181,0-2.13,1.219-2.13,2.856a4.239,4.239,0,0,0,.351,1.746s-1.162,4.924-1.376,5.844a11.387,11.387,0,0,0-.043,3.377A11.765,11.765,0,1,1,23.528,12.327Z" transform="translate(0 -0.563)" fill="#805916"/>
</svg>
