<svg xmlns="http://www.w3.org/2000/svg" width="21.384" height="24.339" viewBox="0 0 21.384 24.339">
  <g id="tik-tok" transform="translate(-31.423 -0.39)">
    <path id="Caminho_272" data-name="Caminho 272" d="M52.8,6.484A6.132,6.132,0,0,1,49.09,5.246,6.134,6.134,0,0,1,46.64.39H42.666V11.249l0,5.948a3.6,3.6,0,1,1-2.471-3.413V9.749a7.82,7.82,0,0,0-1.146-.085,7.62,7.62,0,0,0-5.726,2.561,7.468,7.468,0,0,0,.337,10.3,7.753,7.753,0,0,0,.718.627,7.621,7.621,0,0,0,4.671,1.579,7.82,7.82,0,0,0,1.146-.084,7.6,7.6,0,0,0,4.243-2.122,7.44,7.44,0,0,0,2.232-5.295l-.02-8.882a10.07,10.07,0,0,0,6.162,2.094V6.483s-.01,0-.011,0Z" transform="translate(0)" fill="#805916"/>
  </g>
</svg>
