<svg xmlns="http://www.w3.org/2000/svg" width="23.528" height="23.528" viewBox="0 0 23.528 23.528">
  <path id="Icon_awesome-twitter-square" data-name="Icon awesome-twitter-square" d="M21.007,2.25H2.521A2.522,2.522,0,0,0,0,4.771V23.257a2.522,2.522,0,0,0,2.521,2.521H21.007a2.522,2.522,0,0,0,2.521-2.521V4.771A2.522,2.522,0,0,0,21.007,2.25Zm-2.568,8.34c.011.147.011.3.011.446a9.733,9.733,0,0,1-9.8,9.8,9.755,9.755,0,0,1-5.289-1.544,7.256,7.256,0,0,0,.83.042,6.906,6.906,0,0,0,4.275-1.471,3.449,3.449,0,0,1-3.219-2.39A3.712,3.712,0,0,0,6.8,15.411a3.445,3.445,0,0,1-2.757-3.382v-.042a3.442,3.442,0,0,0,1.555.436A3.437,3.437,0,0,1,4.065,9.555a3.4,3.4,0,0,1,.467-1.738,9.78,9.78,0,0,0,7.1,3.6A3.452,3.452,0,0,1,17.51,8.274a6.749,6.749,0,0,0,2.185-.83,3.435,3.435,0,0,1-1.513,1.9A6.855,6.855,0,0,0,20.167,8.8,7.25,7.25,0,0,1,18.439,10.59Z" transform="translate(0 -2.25)" fill="#805916"/>
</svg>
