<svg xmlns="http://www.w3.org/2000/svg" width="23.528" height="16.543" viewBox="0 0 23.528 16.543">
  <path id="Icon_awesome-youtube" data-name="Icon awesome-youtube" d="M24.087,7.088a2.956,2.956,0,0,0-2.08-2.094C20.172,4.5,12.814,4.5,12.814,4.5s-7.357,0-9.192.495a2.956,2.956,0,0,0-2.08,2.094,31.013,31.013,0,0,0-.492,5.7,31.013,31.013,0,0,0,.492,5.7,2.912,2.912,0,0,0,2.08,2.06c1.835.495,9.192.495,9.192.495s7.357,0,9.192-.495a2.912,2.912,0,0,0,2.08-2.06,31.013,31.013,0,0,0,.492-5.7,31.013,31.013,0,0,0-.492-5.7Zm-13.679,9.2v-7l6.149,3.5-6.149,3.5Z" transform="translate(-1.05 -4.5)" fill="#805916"/>
</svg>
