<svg xmlns="http://www.w3.org/2000/svg" width="26.192" height="28.879" viewBox="0 0 26.192 28.879">
  <g id="Icon_feather-share-2" data-name="Icon feather-share-2" transform="translate(1 1)">
    <path id="Caminho_197" data-name="Caminho 197" d="M30.564,7.032A4.032,4.032,0,1,1,26.532,3,4.032,4.032,0,0,1,30.564,7.032Z" transform="translate(-6.372 -3)" fill="none" stroke="#d0d0d0" stroke-linecap="round" stroke-linejoin="round" stroke-width="2"/>
    <path id="Caminho_198" data-name="Caminho 198" d="M12.564,17.532A4.032,4.032,0,1,1,8.532,13.5,4.032,4.032,0,0,1,12.564,17.532Z" transform="translate(-4.5 -4.092)" fill="none" stroke="#d0d0d0" stroke-linecap="round" stroke-linejoin="round" stroke-width="2"/>
    <path id="Caminho_199" data-name="Caminho 199" d="M30.564,28.032A4.032,4.032,0,1,1,26.532,24,4.032,4.032,0,0,1,30.564,28.032Z" transform="translate(-6.372 -5.185)" fill="none" stroke="#d0d0d0" stroke-linecap="round" stroke-linejoin="round" stroke-width="2"/>
    <path id="Caminho_200" data-name="Caminho 200" d="M12.885,20.265l9.179,5.349" transform="translate(-5.372 -4.796)" fill="none" stroke="#d0d0d0" stroke-linecap="round" stroke-linejoin="round" stroke-width="2"/>
    <path id="Caminho_201" data-name="Caminho 201" d="M22.051,9.765l-9.166,5.349" transform="translate(-5.372 -3.704)" fill="none" stroke="#d0d0d0" stroke-linecap="round" stroke-linejoin="round" stroke-width="2"/>
  </g>
</svg>
