<svg xmlns="http://www.w3.org/2000/svg" width="18.051" height="18.051" viewBox="0 0 18.051 18.051">
  <path id="Icon_awesome-check-circle" data-name="Icon awesome-check-circle" d="M18.613,9.588A9.025,9.025,0,1,1,9.588.563,9.025,9.025,0,0,1,18.613,9.588ZM8.544,14.367l6.7-6.7a.582.582,0,0,0,0-.823l-.823-.823a.582.582,0,0,0-.823,0L8.132,11.485l-2.55-2.55a.582.582,0,0,0-.823,0l-.823.823a.582.582,0,0,0,0,.823L7.72,14.367a.582.582,0,0,0,.823,0Z" transform="translate(-0.563 -0.563)" fill="#00AAA6"/>
</svg>
