<svg xmlns="http://www.w3.org/2000/svg" width="10.722" height="12.253" viewBox="0 0 10.722 12.253">
  <path id="Icon_awesome-trash" data-name="Icon awesome-trash" d="M10.339.766H7.467L7.242.318A.574.574,0,0,0,6.727,0H3.992A.568.568,0,0,0,3.48.318L3.255.766H.383A.383.383,0,0,0,0,1.149v.766A.383.383,0,0,0,.383,2.3h9.956a.383.383,0,0,0,.383-.383V1.149A.383.383,0,0,0,10.339.766ZM1.273,11.177A1.149,1.149,0,0,0,2.42,12.253H8.3a1.149,1.149,0,0,0,1.146-1.077l.507-8.113H.766Z" transform="translate(0 0)" fill="#292929"/>
</svg>
