<svg xmlns="http://www.w3.org/2000/svg" width="11.896" height="8.14" viewBox="0 0 11.896 8.14">
  <path id="noun-card-4946672" d="M128.956,128.962H139.6v.939H128.956Zm0,1.565v1.252H139.6v-1.252Zm10.644,1.878H128.956v3.444H139.6Zm-11.27,0v-3.444a.626.626,0,0,1,.626-.626H139.6a.626.626,0,0,1,.626.626v6.887a.626.626,0,0,1-.626.626H128.956a.626.626,0,0,1-.626-.626Zm8.766,1.565v-.313h.939v.939H137.1Zm-.626-.626a.313.313,0,0,1,.313-.313h1.565a.313.313,0,0,1,.313.313v1.565a.313.313,0,0,1-.313.313h-1.565a.313.313,0,0,1-.313-.313Zm-4.226,1.878a.157.157,0,0,0,.156-.157v-.313a.157.157,0,0,0-.156-.156h-2.191a.156.156,0,0,0-.156.156v.313a.156.156,0,0,0,.156.157Z" transform="translate(-128.33 -128.336)" fill-rule="evenodd"/>
</svg>
