<svg xmlns="http://www.w3.org/2000/svg" width="33.805" height="29.912" viewBox="0 0 33.805 29.912">
  <g id="noun-shopping-cart-5056892" transform="translate(-74.666 -36.393)">
    <path id="Caminho_252" data-name="Caminho 252" d="M103.225,56.25a1.728,1.728,0,0,0,1.664-1.235s3.508-11.689,3.511-11.7a1.746,1.746,0,0,0-1.664-2.237H89.253a.859.859,0,1,0,0,1.719l17.5.024c-.026.087-3.511,11.7-3.529,11.718H86.747L83.257,42.795h1.2a.859.859,0,0,0,0-1.719H82.711c-1.133-3.174-1.252-3.509-1.261-3.529a1.782,1.782,0,0,0-1.635-1.153H75.526a.859.859,0,1,0,0,1.719l4.308.016L81.289,42.2l3.9,13.128-1.867,4.089A3.508,3.508,0,1,0,87.1,61.034H98.445a3.479,3.479,0,1,0,2.991-1.719H85.251l1.406-3.065Zm-1.784,4.784a1.772,1.772,0,1,1-1.772,1.77,1.774,1.774,0,0,1,1.772-1.77ZM85.878,62.807a1.773,1.773,0,1,1-1.773-1.773A1.774,1.774,0,0,1,85.878,62.807Z" transform="translate(0 0)" fill="#fff"/>
    <path id="Caminho_253" data-name="Caminho 253" d="M185.17,55.121v0h0Z" transform="translate(-103.72 -17.578)" fill="#fff"/>
    <path id="Caminho_254" data-name="Caminho 254" d="M356.487,186.5a.859.859,0,1,0,0-1.719h-5.065a.859.859,0,0,0,0,1.719Z" transform="translate(-258.958 -139.277)" fill="#fff"/>
    <path id="Caminho_255" data-name="Caminho 255" d="M305.29,254.019a.86.86,0,0,0,.859.859h10.622a.859.859,0,1,0,0-1.719H306.149A.86.86,0,0,0,305.29,254.019Z" transform="translate(-216.466 -203.459)" fill="#fff"/>
  </g>
</svg>
