<svg id="Grupo_174" data-name="Grupo 174" xmlns="http://www.w3.org/2000/svg" xmlns:xlink="http://www.w3.org/1999/xlink" width="33.713" height="29.978" viewBox="0 0 33.713 29.978">
  <defs>
    <clipPath id="clip-path">
      <rect id="Retângulo_129" data-name="Retângulo 129" width="33.713" height="29.978" fill="#fff"/>
    </clipPath>
  </defs>
  <g id="Grupo_173" data-name="Grupo 173" clip-path="url(#clip-path)">
    <path id="Caminho_158" data-name="Caminho 158" d="M1.124,0a1.124,1.124,0,0,0,0,2.248H4.708L8.572,20.481c.153.686.6,1.258,1.171,1.253H28.479a1.124,1.124,0,1,0,0-2.248H10.656l-.48-2.248h19.8a1.159,1.159,0,0,0,1.089-.878L33.69,5.118A1.176,1.176,0,0,0,32.6,3.747H7.331L6.722.89A1.16,1.16,0,0,0,5.621,0ZM7.8,6H31.184l-2.1,8.993H9.708ZM13.49,22.483a3.747,3.747,0,1,0,3.747,3.747,3.764,3.764,0,0,0-3.747-3.747m11.242,0a3.747,3.747,0,1,0,3.747,3.747A3.764,3.764,0,0,0,24.732,22.483ZM13.49,24.732a1.5,1.5,0,1,1-1.5,1.5,1.482,1.482,0,0,1,1.5-1.5m11.242,0a1.5,1.5,0,1,1-1.5,1.5,1.482,1.482,0,0,1,1.5-1.5" fill="#fff"/>
  </g>
</svg>
