<svg xmlns="http://www.w3.org/2000/svg" width="31.318" height="31.319" viewBox="0 0 31.318 31.319">
  <g id="noun-profile-405168" transform="translate(-92.38 -22.383)">
    <path id="Caminho_250" data-name="Caminho 250" d="M261.446,115.843a5.731,5.731,0,1,0-5.731-5.73A5.737,5.737,0,0,0,261.446,115.843Zm0-9.9a4.173,4.173,0,1,1-4.174,4.174A4.178,4.178,0,0,1,261.446,105.939Z" transform="translate(-153.407 -77.015)" fill="#fff"/>
    <path id="Caminho_251" data-name="Caminho 251" d="M108.039,22.383A15.659,15.659,0,1,0,123.7,38.042,15.677,15.677,0,0,0,108.039,22.383Zm0,1.557a14.093,14.093,0,0,1,11.233,22.614,8.118,8.118,0,0,0-7.928-6.419h-6.613a8.118,8.118,0,0,0-7.927,6.419A14.093,14.093,0,0,1,108.039,23.94ZM98.19,48.121a6.551,6.551,0,0,1,6.543-6.428h6.612a6.553,6.553,0,0,1,6.544,6.428,14.067,14.067,0,0,1-19.7,0Z" fill="#fff"/>
  </g>
</svg>
