<svg xmlns="http://www.w3.org/2000/svg" width="237.938" height="27.636" viewBox="0 0 237.938 27.636">
  <g id="Grupo_1113" data-name="Grupo 1113" transform="translate(3924.183 245.995)">
    <path id="Caminho_214" data-name="Caminho 214" d="M-3871.358-225.344l-2.926-2.926a.242.242,0,0,0-.364.024,13.832,13.832,0,0,1-10.867,5.282,13.811,13.811,0,0,1-9.917-4.2v-7.316l5.679-5.678a2.3,2.3,0,0,0-.328-3.529,13.836,13.836,0,0,0-15.307,0,2.3,2.3,0,0,0-.326,3.529l5.677,5.675v7.32a13.813,13.813,0,0,1-9.917,4.2,13.832,13.832,0,0,1-10.865-5.282.242.242,0,0,0-.363-.024l-2.927,2.926a.247.247,0,0,0-.016.331,18.431,18.431,0,0,0,14.171,6.655,18.394,18.394,0,0,0,12.22-4.635,18.408,18.408,0,0,0,12.221,4.635,18.438,18.438,0,0,0,14.173-6.655.246.246,0,0,0-.016-.331" transform="translate(0)" fill="#fff"/>
    <g id="Grupo_1036" data-name="Grupo 1036" transform="translate(-3859.76 -245.364)">
      <path id="Caminho_215" data-name="Caminho 215" d="M-3867.909-245.062h10.055c5.975,0,9.691,3.387,9.691,8.525v.072c0,5.719-4.59,8.707-10.2,8.707h-5.065v8.2h-4.48Zm9.691,13.26c3.389,0,5.5-1.895,5.5-4.554v-.072c0-2.988-2.149-4.554-5.5-4.554h-5.21v9.18Z" transform="translate(3867.909 245.499)" fill="#fff"/>
      <path id="Caminho_216" data-name="Caminho 216" d="M-3846.652-245.062h11.366a10.276,10.276,0,0,1,7.36,2.549,7.709,7.709,0,0,1,2.113,5.5v.073c0,4.19-2.515,6.7-6.049,7.724l6.886,9.654h-5.319l-6.265-8.889h-5.61v8.889h-4.482Zm11.038,12.641c3.207,0,5.246-1.675,5.246-4.262v-.073c0-2.731-1.967-4.225-5.281-4.225h-6.521v8.561Z" transform="translate(3870.987 245.499)" fill="#fff"/>
      <path id="Caminho_217" data-name="Caminho 217" d="M-3824.631-232.183v-.073a13.066,13.066,0,0,1,13.371-13.188,12.945,12.945,0,0,1,13.3,13.115v.073a13.067,13.067,0,0,1-13.37,13.187,12.945,12.945,0,0,1-13.3-13.114m21.968,0v-.073c0-4.956-3.607-9.071-8.669-9.071s-8.6,4.043-8.6,9v.073a8.706,8.706,0,0,0,8.67,9.035c5.063,0,8.6-4.008,8.6-8.962" transform="translate(3874.176 245.444)" fill="#fff"/>
      <path id="Caminho_218" data-name="Caminho 218" d="M-3796.6-245.062h10.054c5.975,0,9.691,3.387,9.691,8.525v.072c0,5.719-4.59,8.707-10.2,8.707h-5.064v8.2h-4.48Zm9.69,13.26c3.389,0,5.5-1.895,5.5-4.554v-.072c0-2.988-2.15-4.554-5.5-4.554h-5.21v9.18Z" transform="translate(3878.235 245.499)" fill="#fff"/>
      <path id="Caminho_219" data-name="Caminho 219" d="M-3775.339-245.062h18.908v4.007h-14.427v6.63h12.787v4.008h-12.787v6.849h14.609v4.008h-19.09Z" transform="translate(3881.313 245.499)" fill="#fff"/>
      <path id="Caminho_220" data-name="Caminho 220" d="M-3747.522-240.909h-8.088v-4.153h20.693v4.153H-3743v21.348h-4.517Z" transform="translate(3884.17 245.499)" fill="#fff"/>
      <path id="Caminho_221" data-name="Caminho 221" d="M-3734.606-222.876l15.045-18.215h-14.572v-3.971h20.438v3.315l-15.082,18.215h15.082v3.972h-20.911Z" transform="translate(3887.211 245.499)" fill="#fff"/>
    </g>
  </g>
</svg>
