<svg xmlns="http://www.w3.org/2000/svg" width="156.067" height="33.346" viewBox="0 0 156.067 33.346">
  <g id="Grupo_1127" data-name="Grupo 1127" transform="translate(-628 -348)">
    <g id="Grupo_1126" data-name="Grupo 1126" transform="translate(628 348)">
      <path id="Caminho_256" data-name="Caminho 256" d="M766.553,181.892a8.615,8.615,0,0,1-2.378-6.54,8.426,8.426,0,0,1,2.366-6.419q2.366-2.245,6.807-2.245a10.56,10.56,0,0,1,5.921,1.48,5.874,5.874,0,0,1,2.645,4.2h-2.548a5.008,5.008,0,0,0-1.941-3.24,6.464,6.464,0,0,0-3.955-1.152,5.7,5.7,0,0,0-4.611,1.893,8.278,8.278,0,0,0-1.6,5.484,8.518,8.518,0,0,0,1.613,5.582,5.671,5.671,0,0,0,4.623,1.941,6.453,6.453,0,0,0,3.943-1.14,4.989,4.989,0,0,0,1.929-3.252h2.548a5.782,5.782,0,0,1-2.633,4.2,10.519,10.519,0,0,1-5.885,1.481q-4.466,0-6.844-2.269" transform="translate(-722.335 -158.751)" fill="#fff"/>
      <path id="Caminho_257" data-name="Caminho 257" d="M825.325,167.393h3.058v7.256h10.265v-7.256h3.057V184.38h-3.057v-8.469H828.382v8.469h-3.058Z" transform="translate(-762.445 -159.213)" fill="#fff"/>
      <path id="Caminho_258" data-name="Caminho 258" d="M888.137,183.117a7.339,7.339,0,0,1-3.227-3.021,9.5,9.5,0,0,1-1.117-4.745,9.262,9.262,0,0,1,1.117-4.671,7.239,7.239,0,0,1,3.227-2.972,12.887,12.887,0,0,1,10.047,0,7.242,7.242,0,0,1,3.227,2.972,9.266,9.266,0,0,1,1.117,4.671,9.507,9.507,0,0,1-1.117,4.745,7.342,7.342,0,0,1-3.227,3.021,12.613,12.613,0,0,1-10.047,0m9.683-2.2a8.484,8.484,0,0,0,1.626-5.569,8.2,8.2,0,0,0-1.626-5.472,6.65,6.65,0,0,0-9.319,0,8.2,8.2,0,0,0-1.626,5.472,8.481,8.481,0,0,0,1.626,5.569,6.533,6.533,0,0,0,9.319,0" transform="translate(-800.796 -158.751)" fill="#fff"/>
      <path id="Caminho_259" data-name="Caminho 259" d="M947.827,176.954l-7.256-9.561H943.9l5.945,7.814,6.431-7.814h2.136l-7.523,9.2v7.79h-3.058Z" transform="translate(-838.039 -159.213)" fill="#fff"/>
      <path id="Caminho_260" data-name="Caminho 260" d="M999.534,167.393h14.828v1.286h-11.77v5.97H1013v1.262h-10.411v7.183h11.77v1.286H999.534Z" transform="translate(-876.714 -159.213)" fill="#fff"/>
      <path id="Caminho_261" data-name="Caminho 261" d="M1065.978,183.093a2.121,2.121,0,0,0,.9,1.044v.243h-3.107a9.7,9.7,0,0,1-1.553-3.009,13.908,13.908,0,0,0-1.3-2.718,2.931,2.931,0,0,0-1.638-1.262h-4.708v6.989h-3.058V167.392h7.256q7.522,0,7.523,5,0,3.712-4.2,4.683a4.391,4.391,0,0,1,1.565,1.323,10.841,10.841,0,0,1,1.25,2.341q.606,1.481,1.068,2.354m-11.406-6.965h4.222a5.47,5.47,0,0,0,3.3-.862,4.1,4.1,0,0,0,0-5.727,5.475,5.475,0,0,0-3.3-.862h-4.222Z" transform="translate(-910.81 -159.213)" fill="#fff"/>
      <path id="Caminho_262" data-name="Caminho 262" d="M675.919,160.368a8.669,8.669,0,0,0-2.372-6.552,8.9,8.9,0,0,0-5.6-2.216,8.9,8.9,0,0,0-2.2-5.621,8.473,8.473,0,0,0-6.426-2.36,8.669,8.669,0,0,0-6.552,2.372,8.9,8.9,0,0,0-2.216,5.6,8.9,8.9,0,0,0-5.621,2.2,8.471,8.471,0,0,0-2.359,6.426,8.669,8.669,0,0,0,2.372,6.552,8.9,8.9,0,0,0,5.6,2.216,8.9,8.9,0,0,0,2.2,5.621,8.472,8.472,0,0,0,6.427,2.359,8.67,8.67,0,0,0,6.552-2.372,8.9,8.9,0,0,0,2.216-5.6,8.9,8.9,0,0,0,5.621-2.2,8.475,8.475,0,0,0,2.36-6.427m-22.462-12.314a8.978,8.978,0,0,1,5.863-1.705,8.733,8.733,0,0,1,5.765,1.694,5.636,5.636,0,0,1,1.909,3.512c-.106,0-.21-.005-.318-.005a10.628,10.628,0,0,0-5.916,1.483,5.918,5.918,0,0,0-1.523,1.438,5.979,5.979,0,0,0-1.519-1.438,10.676,10.676,0,0,0-5.954-1.482c-.088,0-.174,0-.26,0a5.629,5.629,0,0,1,1.953-3.5m13.646,4.883a8.036,8.036,0,0,1-1.225,4.546,5.5,5.5,0,0,1-3.28,2.173v1.308a5.429,5.429,0,0,1,3.293,2.127,8.036,8.036,0,0,1,1.212,4.534c0,.174-.006.344-.016.512-.159.008-.32.014-.485.014a8.033,8.033,0,0,1-4.546-1.225,5.5,5.5,0,0,1-2.173-3.28h-1.308a5.429,5.429,0,0,1-2.127,3.293,8.034,8.034,0,0,1-4.534,1.212c-.174,0-.344-.006-.512-.016-.008-.159-.014-.32-.014-.485a8.035,8.035,0,0,1,1.225-4.547,5.453,5.453,0,0,1,3.28-2.139v-1.308A5.475,5.475,0,0,1,652.6,157.5a8.035,8.035,0,0,1-1.211-4.533c0-.174.006-.344.015-.513.159-.008.32-.014.485-.014a8.038,8.038,0,0,1,4.547,1.225,5.453,5.453,0,0,1,2.139,3.28h1.308a5.471,5.471,0,0,1,2.16-3.293,8.037,8.037,0,0,1,4.534-1.212c.174,0,.344.007.512.016.008.159.014.32.014.485m-20.1,13.145a8.981,8.981,0,0,1-1.705-5.863,8.733,8.733,0,0,1,1.694-5.765,5.634,5.634,0,0,1,3.512-1.909c0,.105-.006.21-.006.318a10.631,10.631,0,0,0,1.483,5.916,5.912,5.912,0,0,0,1.438,1.523,5.968,5.968,0,0,0-1.438,1.519,10.679,10.679,0,0,0-1.483,5.954c0,.088,0,.173,0,.26a5.63,5.63,0,0,1-3.5-1.953m18.028,6.451a8.98,8.98,0,0,1-5.863,1.705,8.735,8.735,0,0,1-5.765-1.694,5.634,5.634,0,0,1-1.909-3.512c.106,0,.21.005.317.005a10.634,10.634,0,0,0,5.917-1.483,5.912,5.912,0,0,0,1.523-1.438,5.969,5.969,0,0,0,1.519,1.438,10.679,10.679,0,0,0,5.954,1.482c.088,0,.174,0,.26,0a5.634,5.634,0,0,1-1.953,3.5m6.462-6.4a5.633,5.633,0,0,1-3.512,1.909c0-.106.005-.21.005-.317a10.633,10.633,0,0,0-1.483-5.917,5.918,5.918,0,0,0-1.438-1.523,5.973,5.973,0,0,0,1.438-1.519,10.68,10.68,0,0,0,1.482-5.954c0-.088,0-.174,0-.26a5.629,5.629,0,0,1,3.5,1.953,8.978,8.978,0,0,1,1.705,5.863,8.732,8.732,0,0,1-1.694,5.765" transform="translate(-642.573 -143.62)" fill="#fff"/>
    </g>
  </g>
</svg>
