<svg xmlns="http://www.w3.org/2000/svg" width="127.238" height="42.042" viewBox="0 0 127.238 42.042">
  <g id="Grupo_182" data-name="Grupo 182" transform="translate(-2939 138)">
    <path id="Caminho_161" data-name="Caminho 161" d="M30.958,11.785c-1.842-.233-3.925-.614-4.476-1.758-2.274-5.45-8.374-5.433-8.374-5.433S17.183.511,16.018.036c-1.254-.44-4.5,3.257-5.666,4.686-4.765,5.674-6.244,14.95.87,20.075a35.061,35.061,0,0,0,5.591,3.085c.18.091.373.2.57.312C10.917,25.638,3,24.98,2.948,13.152c-4.532,6.163-4.137,14.228,3.274,18.11,4.436,2.457,10.357,3.114,14.5,4.627-6.037-1.872-12.881-.581-18.5-4.919,2.506,7.088,9.414,8.3,14.121,8.383,4.268.059,8.04-.526,9.472,2.688a6.437,6.437,0,0,0-.183-1.881c-.068-4.2-1.231-6.876-3-8.725a12.394,12.394,0,0,0-1.875-2.013c-5.087-4.557-1.187-8.815,4.034-8.815s6.7-1.929,7.574-7.041a1.455,1.455,0,0,0-1.4-1.782m-8.951.468a1.057,1.057,0,0,1-1.067-1.065,1.1,1.1,0,0,1,1.067-1.065,1.065,1.065,0,1,1,0,2.131" transform="translate(2939 -138)" fill="#AB3E00"/>
    <path id="Caminho_162" data-name="Caminho 162" d="M147.261,58.9a.327.327,0,0,0,.265-.379l-.083-.473a6.691,6.691,0,1,0-4.533,7.53,6.85,6.85,0,0,0,3.5-2.639l.186-.266a.351.351,0,0,0-.086-.488l-.83-.58a.25.25,0,0,0-.348.061l-.32.456a5.074,5.074,0,0,1-8.952-1.248L146,59.128Zm-11.475.385a5.078,5.078,0,0,1,4.5-5.12,5.138,5.138,0,0,1,5.338,3.385Z" transform="translate(2859.795 -169.009)" fill="#fff"/>
    <path id="Caminho_163" data-name="Caminho 163" d="M125.419,41.311h-1.113a.25.25,0,0,0-.25.25V58.853a.25.25,0,0,0,.25.251h1.113a.25.25,0,0,0,.25-.251V41.561a.25.25,0,0,0-.25-.25" transform="translate(2865.762 -162.389)" fill="#fff"/>
    <path id="Caminho_164" data-name="Caminho 164" d="M214.086,52.526h-1.113a.25.25,0,0,0-.25.25v2.1a6.69,6.69,0,1,0,0,8.689v2.1a.25.25,0,0,0,.25.25h1.113a.25.25,0,0,0,.25-.25V52.776a.25.25,0,0,0-.25-.25m-6.439,11.767a5.077,5.077,0,1,1,5.077-5.077,5.084,5.084,0,0,1-5.077,5.077" transform="translate(2820.363 -169.01)" fill="#fff"/>
    <path id="Caminho_165" data-name="Caminho 165" d="M289.5,61.61a.25.25,0,0,0-.348.061l-.32.456a5.074,5.074,0,0,1-8.952-1.248l9.934-1.752,1.266-.223a.328.328,0,0,0,.265-.379l-.083-.473a6.691,6.691,0,1,0-4.533,7.53,6.852,6.852,0,0,0,3.5-2.639l.186-.266a.35.35,0,0,0-.086-.487ZM284.1,54.17a5.138,5.138,0,0,1,5.338,3.385L279.6,59.29a5.078,5.078,0,0,1,4.5-5.12" transform="translate(2774.893 -169.009)" fill="#fff"/>
    <path id="Caminho_166" data-name="Caminho 166" d="M252.512,52.526H251.4a.25.25,0,0,0-.25.25v2.1a6.69,6.69,0,1,0,0,8.689v1.357a5.082,5.082,0,0,1-5.543,5.056,5.3,5.3,0,0,1-3.241-1.582l-.206-.206a.35.35,0,0,0-.5,0l-.574.574a.45.45,0,0,0,0,.637l.112.112a6.949,6.949,0,0,0,4.816,2.1,6.7,6.7,0,0,0,6.744-6.69V52.776a.25.25,0,0,0-.25-.25m-6.44,11.767a5.077,5.077,0,1,1,5.077-5.077,5.083,5.083,0,0,1-5.077,5.077" transform="translate(2797.677 -169.01)" fill="#fff"/>
    <path id="Caminho_167" data-name="Caminho 167" d="M181.128,52.5h-1.2a.353.353,0,0,0-.331.232l-4.126,11.353h-.645L170.7,52.736a.353.353,0,0,0-.331-.232h-1.238a.141.141,0,0,0-.133.188l4.48,12.587a.638.638,0,0,0,.6.423h2.144a.631.631,0,0,0,.6-.42l4.468-12.552a.169.169,0,0,0-.16-.226" transform="translate(2839.233 -168.997)" fill="#fff"/>
    <path id="Caminho_168" data-name="Caminho 168" d="M98.319,58.9a.327.327,0,0,0,.265-.379l-.083-.473a6.69,6.69,0,1,0-4.533,7.53,6.851,6.851,0,0,0,3.5-2.639l.186-.266a.351.351,0,0,0-.086-.488l-.83-.58a.25.25,0,0,0-.348.061l-.32.456a5.074,5.074,0,0,1-8.952-1.248l9.934-1.752Zm-11.475.385a5.078,5.078,0,0,1,4.5-5.12,5.138,5.138,0,0,1,5.338,3.385Z" transform="translate(2888.689 -169.009)" fill="#fff"/>
    <rect id="Retângulo_131" data-name="Retângulo 131" width="127.238" height="42.042" transform="translate(2939 -138)" fill="none"/>
  </g>
</svg>
