<svg xmlns="http://www.w3.org/2000/svg" width="30.594" height="28" viewBox="0 0 30.594 28">
  <g id="shopping-cart_1_" data-name="shopping-cart (1)" transform="translate(0 -21.705)">
    <g id="Grupo_1129" data-name="Grupo 1129" transform="translate(20.409 42.076)">
      <g id="Grupo_1128" data-name="Grupo 1128">
        <path id="Caminho_265" data-name="Caminho 265" d="M345.362,362.612a3.815,3.815,0,1,0,3.815,3.815A3.819,3.819,0,0,0,345.362,362.612Zm0,5.341a1.526,1.526,0,1,1,1.526-1.526A1.527,1.527,0,0,1,345.362,367.953Z" transform="translate(-341.547 -362.612)" fill="#fff"/>
      </g>
    </g>
    <g id="Grupo_1131" data-name="Grupo 1131" transform="translate(0 21.705)">
      <g id="Grupo_1130" data-name="Grupo 1130" transform="translate(0 0)">
        <path id="Caminho_266" data-name="Caminho 266" d="M30.351,27.332a1.143,1.143,0,0,0-.9-.439H7.064l-1.03-4.309A1.145,1.145,0,0,0,4.921,21.7H1.144a1.144,1.144,0,1,0,0,2.289H4.018L7.737,39.556a1.144,1.144,0,0,0,1.113.879H26.665a1.144,1.144,0,0,0,1.111-.869l2.785-11.253A1.146,1.146,0,0,0,30.351,27.332ZM25.77,38.146H9.753L7.611,29.182H27.987Z" transform="translate(0 -21.705)" fill="#fff"/>
      </g>
    </g>
    <g id="Grupo_1133" data-name="Grupo 1133" transform="translate(6.561 42.076)">
      <g id="Grupo_1132" data-name="Grupo 1132">
        <path id="Caminho_267" data-name="Caminho 267" d="M113.621,362.612a3.815,3.815,0,1,0,3.815,3.815A3.819,3.819,0,0,0,113.621,362.612Zm0,5.341a1.526,1.526,0,1,1,1.526-1.526A1.527,1.527,0,0,1,113.621,367.953Z" transform="translate(-109.806 -362.612)" fill="#fff"/>
      </g>
    </g>
  </g>
</svg>
