<svg xmlns="http://www.w3.org/2000/svg" width="22.725" height="26.857" viewBox="0 0 22.725 26.857">
  <g id="user_account_people_man" data-name="user, account, people, man" transform="translate(-5 -3)">
    <path id="Caminho_263" data-name="Caminho 263" d="M24.355,16.191A1.033,1.033,0,1,0,22.9,17.66a9.232,9.232,0,0,1,2.757,6.608c0,1.263-3.621,3.1-9.3,3.1s-9.3-1.836-9.3-3.1a9.233,9.233,0,0,1,2.722-6.572,1.033,1.033,0,1,0-1.461-1.461A11.287,11.287,0,0,0,5,24.267c0,3.355,5.854,5.165,11.363,5.165s11.363-1.81,11.363-5.165a11.28,11.28,0,0,0-3.37-8.077Z" transform="translate(0 0.425)" fill="#fff"/>
    <path id="Caminho_264" data-name="Caminho 264" d="M16.231,17.462A7.231,7.231,0,1,0,9,10.231,7.231,7.231,0,0,0,16.231,17.462Zm0-12.4a5.165,5.165,0,1,1-5.165,5.165,5.165,5.165,0,0,1,5.165-5.165Z" transform="translate(0.132 0)" fill="#fff"/>
  </g>
</svg>
